<svg xmlns="http://www.w3.org/2000/svg" viewBox="0 0 24 24" fill="currentColor"><path d="M0 0h24v24H0z" fill="none"/><path style=" stroke:none;fill-rule:nonzero;fill-opacity:1;" d="M 8.363281 12 C 8.363281 11 7.546875 10.183594 6.546875 10.183594 C 5.546875 10.183594 4.726562 11 4.726562 12 C 4.726562 13 5.546875 13.816406 6.546875 13.816406 C 7.546875 13.816406 8.363281 13 8.363281 12 Z M 10.183594 12 C 10.183594 13 11 13.816406 12 13.816406 C 13 13.816406 13.816406 13 13.816406 12 C 13.816406 11 13 10.183594 12 10.183594 C 11 10.183594 10.183594 11 10.183594 12 Z M 15.636719 12 C 15.636719 13 16.453125 13.816406 17.453125 13.816406 C 18.453125 13.816406 19.273438 13 19.273438 12 C 19.273438 11 18.453125 10.183594 17.453125 10.183594 C 16.453125 10.183594 15.636719 11 15.636719 12 Z M 15.636719 12 "/></svg>
